<?xml version="1.0" encoding="utf-8"?>
<!-- Generator: Adobe Illustrator 19.1.0, SVG Export Plug-In . SVG Version: 6.00 Build 0)  -->
<svg version="1.1" id="Layer_1" xmlns="http://www.w3.org/2000/svg" xmlns:xlink="http://www.w3.org/1999/xlink" x="0px" y="0px"
	 viewBox="0 0 960 560" style="enable-background:new 0 0 960 560;" xml:space="preserve">
<style type="text/css">
	.st0{fill:#594230;}
	.st1{fill:#FFB400;}
</style>
<path class="st0" d="M595,268.7l-15.1,5.8l7.8,10.1c-10.6,13.8-2.7,17-2.7,17s-5.3,4.3-9,7.4c-3.7,3.2-1.1,8-1.1,8l2.1,3.2l-2.7,1.1
	l-2.7,6.9l9,5.3l-3.2,7.4l-21.3-3.7l2.7,8.5c-10.1,2.7-13.8,10.1-13.8,10.1c-5.3-1.1-12.2,1.6-12.2,1.6c-2.7,1.6-2.1,13.8-2.1,13.8
	l-9-10.3c0,6.7,0.9,25.1,0.9,25.1h-7.3l-6.9-12.7l-5.9,3.3c-6.4-13.3-14.9,2.7-14.9,2.7c-1.9-3.4-7.4-4.6-8.5-4.8
	c-1.1,0.2-6.5,1.4-8.5,4.8c0,0-8.5-16-14.9-2.7l-5.8-3.2l-6.9,12.7h-7.3c0,0,0.9-18.4,0.9-25.1l-9,10.4c0,0,0.5-12.2-2.1-13.8
	c0,0-6.9-2.7-12.2-1.6c0,0-3.7-7.4-13.8-10.1l2.7-8.5L381,341l-3.2-7.4l9-5.3l-2.7-6.9l-2.7-1.1l2.1-3.2c0,0,2.7-4.8-1.1-8
	c-3.7-3.2-9-7.4-9-7.4s8-3.2-2.6-17l7.4-10.1l-15.4-5.8v-5.2c0,0,8.5-0.7,17-3.9l-6.4-8.5l12.2-1.1l-3.2-3.7c0,0,0.5-5.8-1.6-10.6
	c0,0,13.8-2.7,9-14.9c0,0,18.1,1.1,1.6-18.6l3.2-4.3c0,0,12.8,7.4,20.2,8l-3.2-8.5l8,4.8c0,0-0.5-10.1,0.5-13.3
	c0,0,20.2,7.4,20.7-2.1l8.5,1.6c0,0,1-14.9,0.5-22.3l6.9-1.1c0,0,10,34.1,22,6.8v-0.8c0,0.1,0.4,0.3,0.5,0.4
	c0.1-0.1,0.5-0.3,0.5-0.4v0.8c11,27.3,21.9-6.8,21.9-6.8l6.7,1.1c-0.5,7.4,0.5,22.3,0.5,22.3l8.5-1.6c0.5,9.6,20.7,2.1,20.7,2.1
	c1.1,3.2,0.5,13.3,0.5,13.3l8-4.8l-3.2,8.5c7.4-0.5,20.2-8,20.2-8l3.2,4.3c-16.5,19.7,1.6,18.6,1.6,18.6c-4.8,12.2,9,14.9,9,14.9
	c-2.1,4.8-1.6,10.6-1.6,10.6l-3.2,3.7l12.1,1.1l-6.6,8.5c8.5,3.2,16.7,3.9,16.7,3.9V268.7z"/>
<path class="st1" d="M404.7,26.9c0,0,95.9,63.3,68.2,148.3c0,0-10.1-2.1-10.1-5.3c0-3.2-4.3-22.3-14.3-34
	c-10.1-11.7-11.7,1.6-6.4,14.9c5.3,13.3,3.2,28.7,3.2,28.7s-12.2-10.6-10.6-4.8c1.6,5.8,4.3,15.4-3.2,8.5S391.8,160.8,404.7,26.9z
	 M397,110.5v-22l-24.3-23.9c0,0,3.8,27.1,3.8,30.8C376.6,99.2,397,110.5,397,110.5z M409.7,164.6c0,0-12.2-26.6-13.3-46.2
	c0,0-48.4-38.8-88.7-45.2c0,0,23.9,35.1,24.4,39.3C332.2,112.5,383.7,124.2,409.7,164.6z M345.4,216.1c0,0,25.5,11.7,40.9,9.6
	c0,0-17.5-14.3-3.7-11.2c0,0,22.8,5.3,4.3-11.2c0,0-17.5-11.7-20.2-15.4s-19.7-22.8,10.1-9c0,0,22.3,9.6,31.4,22.3
	c0,0-13.8-29.2,6.4-9c0,0-10.1-54.2-78.6-72.3c0,0-54.2-6.4-56.3-6.4C277.4,113.6,300.3,193.3,345.4,216.1z M276.4,221.4
	c8,0.5,60.6-1.6,69.6,1.1c0,0-37.2-19.1-57.4-64.8c0,0-43,3.2-59,11.2l33.5,45.7C263.1,214.5,268.4,220.9,276.4,221.4z M377.3,246.9
	c0,0-27.1-25.5-51-21.3c0,0-60,6.9-95.7-8.5c0,0,40.4,89.8,107.9,87.1c0,0,37.2-3.7,30.8-11.2c0,0-14.9-3.7-5.8-11.2
	c0,0,12.8-3.2-2.1-7.4c0,0-47.3-3.2-9.6-13.8c0,0,26,0,18.6-5.3C363,250.1,354.5,244.8,377.3,246.9z M236,311.8l25.5,6.4
	c0,0,34.5-15.9,38.8-16.5c0,0-27.6-18.6-33.5-23.9C266.8,277.8,237,305.4,236,311.8z M375.7,312.3l-17.5-4.3
	c-15.4,5.3-30.8,2.1-40.9-0.5c-10.1-2.7-14.3-1.1-14.3-1.1c-63.8,21.3-79.2,55.3-79.2,55.3l63.2,14.3
	C327.4,312.8,375.7,312.3,375.7,312.3z M404.4,355.3c0,0,0-4.3-8.5-1.6c-8.5,2.7-2.1-9-2.1-9s-12.2,2.7-18.1,7.4
	c-5.8,4.8-40.4,28.2-15.9-7.4c0,0,9-10.6,20.7-16.5c0,0-21.3,2.7-2.1-11.2c0,0-71.2-1.1-110.5,118.5
	C267.9,435.6,377.3,415.4,404.4,355.3z M417.2,363.3c0,0-11.7,6.4-9.6-4.8c0,0-19.1,42.5-71.2,59.5c0,0-12.2,38.3-5.3,68
	c0,0,30.8-32.4,57.9-40.4C389,445.7,374.7,397.3,417.2,363.3z M357.1,469.1c0,0,9,30.3,13.8,33.5s25-28.2,25-28.2l-7.4-23.4
	L357.1,469.1z M462.9,379.8c0,0-4.8,5.3-4.8,6.9c0,1.6-4.8,9-5.8-5.3c0,0-8,15.4-10.1,17.5c-2.1,2.1-18.6,23.9-12.2,0l3.7-25
	l-8.5,6.4c0,0-7.4,5.8-2.7-12.8c0,0-69.1,37.2,2.7,148.8c0,0,9-52.1,29.8-73.9S462.9,379.8,462.9,379.8z M485.7,175.2
	c0,0,10.1-2.1,10.1-5.3c0-3.2,4.3-22.3,14.3-34c10.1-11.7,11.7,1.6,6.4,14.9c-5.3,13.3-3.2,28.7-3.2,28.7s12.2-10.6,10.6-4.8
	c-1.6,5.8-4.3,15.4,3.2,8.5s39.8-22.4,26.8-156.3C553.9,26.9,458.1,90.2,485.7,175.2z M582.4,95.5c0-3.7,3.7-30.8,3.7-30.8L562,88.5
	v22C562,110.5,582.4,99.2,582.4,95.5z M548.9,164.6c26-40.4,77.6-52.1,77.6-52.1c0.5-4.3,24.4-39.3,24.4-39.3
	c-40.4,6.4-88.7,45.2-88.7,45.2C561.2,138,548.9,164.6,548.9,164.6z M544.2,192.2c20.2-20.2,6.4,9,6.4,9c9-12.8,31.4-22.3,31.4-22.3
	c29.8-13.8,12.8,5.3,10.1,9c-2.7,3.7-20.2,15.4-20.2,15.4c-18.6,16.5,4.3,11.2,4.3,11.2c13.8-3.2-3.7,11.2-3.7,11.2
	c15.4,2.1,40.9-9.6,40.9-9.6c45.2-22.8,68-102.6,65.9-102.6s-56.3,6.4-56.3,6.4C554.2,138,544.2,192.2,544.2,192.2z M612.7,222.5
	c9-2.7,61.6-0.5,69.6-1.1c8-0.5,13.3-6.9,13.3-6.9l33.5-45.7c-15.9-8-59-11.2-59-11.2C649.9,203.4,612.7,222.5,612.7,222.5z
	 M632.4,225.7c-23.9-4.3-51,21.3-51,21.3c22.8-2.1,14.3,3.2,6.9,8.5c-7.4,5.3,18.6,5.3,18.6,5.3c37.7,10.6-9.6,13.8-9.6,13.8
	c-14.9,4.3-2.1,7.4-2.1,7.4c9,7.4-5.8,11.2-5.8,11.2c-6.4,7.4,30.8,11.2,30.8,11.2C687.6,307,728,217.2,728,217.2
	C692.4,232.6,632.4,225.7,632.4,225.7z M658.4,301.7c4.3,0.5,38.8,16.5,38.8,16.5l25.5-6.4c-1.1-6.4-30.8-34-30.8-34
	C686,283.1,658.4,301.7,658.4,301.7z M671.7,376.1l63.2-14.3c0,0-15.4-34-79.2-55.3c0,0-4.3-1.6-14.3,1.1
	c-10.1,2.7-25.5,5.8-40.9,0.5l-17.5,4.3C582.9,312.3,631.3,312.8,671.7,376.1z M580.3,317.1c19.1,13.8-2.1,11.2-2.1,11.2
	c11.7,5.8,20.7,16.5,20.7,16.5c24.4,35.6-10.1,12.2-15.9,7.4c-5.8-4.8-18.1-7.4-18.1-7.4s6.4,11.7-2.1,9c-8.5-2.7-8.5,1.6-8.5,1.6
	c27.1,60,136.6,80.2,136.6,80.2C651.5,316,580.3,317.1,580.3,317.1z M551.1,358.5c2.1,11.2-9.6,4.8-9.6,4.8
	c42.5,34,28.2,82.4,28.2,82.4c27.1,8,57.9,40.4,57.9,40.4c6.9-29.8-5.3-68-5.3-68C570.2,401,551.1,358.5,551.1,358.5z M562.8,474.4
	c0,0,20.2,31.4,25,28.2s13.8-33.5,13.8-33.5L570.2,451L562.8,474.4z M536.2,367.6c4.8,18.6-2.7,12.8-2.7,12.8l-8.5-6.4l3.7,25
	c6.4,23.9-10.1,2.1-12.2,0c-2.1-2.1-10.1-17.5-10.1-17.5c-1.1,14.3-5.8,6.9-5.8,5.3c0-1.6-4.8-6.9-4.8-6.9s-12.8,40.9,8,62.7
	c20.7,21.8,29.8,73.9,29.8,73.9C605.3,404.8,536.2,367.6,536.2,367.6z M486.6,380.8c0,0-6.5,11.6-10.6,1c0,0,6.3,46.2-28.9,88.2
	c0,0,9.9,38.9,31.5,60.5c0,0,9-43.8,27.7-64.9C506.3,465.6,468.5,432.2,486.6,380.8z M501.9,67.3c0,0-20.1-24.4-25.8-25.4
	c-5.6-1.1-12,35.7-12,35.7l16,18.6L501.9,67.3z"/>
</svg>
